<svg id="Layer_1" data-name="Layer 1" xmlns="http://www.w3.org/2000/svg" viewBox="0 0 370.04 79.32">
    <defs>
        <linearGradient id="purple-blue-gradient" gradientUnits="userSpaceOnUse" x1="0%" y1="0%" x2="100%" y2="100%" gradientTransform="rotate(45)">
            <stop offset="0%" style="stop-color:#7F00FF;"/>
            <stop offset="20%" style="stop-color:#4E9FE5;"/>
        </linearGradient>
			
			<linearGradient id="black" gradientUnits="userSpaceOnUse" 
   x1="0%" y1="0%" x2="100%" y2="0%" gradientTransform="rotate(90)">
    <stop offset="0%" stop-color="#9c9c9c" stop-opacity="1"/>
    <stop offset="18%" stop-color="#2b2b2b" stop-opacity="1"/>
  </linearGradient>
        
    </defs><path fill="url(#purple-blue-gradient)" class="c2" d="M41.71,3.37c1.37.08,2.72.23,4,.44a3.82,3.82,0,0,1,3.16,4V21.28A3.77,3.77,0,0,1,44.83,25q-3.33-.23-6.68-.23c-13.54,0-27.4,2.82-35,7.83l0,0a1.92,1.92,0,0,1-2.76-.84,1.74,1.74,0,0,1,.83-2.33l.89-.61A37.08,37.08,0,0,1,34.39,3.39l.34,0c.82,0,.88-2,.88-2.26,0-.61,1.12-1.1,2.51-1.1s2.52.49,2.52,1.1c0,.23.28,2.27.88,2.26Z" transform="translate(-0.16)"/><path class="c2" fill="url(#purple-blue-gradient)" d="M75.47,72a7,7,0,0,1-.41-1.13c0-.89.07-1.89.07-3,0-10.8-.13-26.13-.14-28.25-4-5.67-17.7-10.79-36.64-10.79-19.11,0-32.92,5.22-36.75,11,0,8.48,0,20.52,0,28.09,0,1.4.44,3-.49,4.45-.53.82-1.42,2.32-.63,3.47.53.79,1.65,1,3,.71,0,0,18.68-3.32,34.84-3.32a216.13,216.13,0,0,1,35,3.37c1.59.2,2.24.2,2.75-.6S76.29,73.62,75.47,72ZM15.28,65c0,1.66-1.38,2.31-3,2.52s-3,.09-3-1.57V41a3,3,0,0,1,6,0Zm13.43-1.28c0,1.66-1.33,2.19-3,2.32s-3-.08-3-1.73V37.63a3,3,0,0,1,6,0Zm13.43-.29c0,1.66-1.34,2-3,2s-3-.31-3-2V37a3,3,0,0,1,6,0Zm13.43.86c0,1.66-1.31,1.87-3,1.73s-3-.57-3-2.22V37.86a3,3,0,0,1,6,0ZM69,65.92c0,1.65-1.36,1.79-3,1.47-1.65-.14-3-.68-3-2.34V41.22a3,3,0,0,1,6,0Z" transform="translate(-0.16)"/><path class="c2" fill="url(#purple-blue-gradient)" d="M3.14,32.58a1.58,1.58,0,0,1-.38.21" transform="translate(-0.16)"/><path class="c2" fill="url(#purple-blue-gradient)" d="M87.49,24.88c0,.76-.32,1.62-.84,1.66a7.58,7.58,0,0,0-4,1.63,7.23,7.23,0,0,0-1.79,4.14c-.06.56-1,.84-1.62.84H79c-.76,0-1.62-.31-1.66-.84a7.53,7.53,0,0,0-1.63-4,7.33,7.33,0,0,0-4.14-1.8c-.56-.05-.84-1-.84-1.61v-.17h0v-.12c0-.75.32-1.61.84-1.65a7.61,7.61,0,0,0,4-1.63,7.35,7.35,0,0,0,1.8-4.15c.05-.55,1-.84,1.62-.84h.28c.75,0,1.61.32,1.66.85a7.55,7.55,0,0,0,1.62,4A7.38,7.38,0,0,0,86.65,23c.56.05.84,1,.84,1.61v.28Z" transform="translate(-0.16)"/><path class="c2" fill="url(#purple-blue-gradient)" d="M358.34,49.37" transform="translate(-0.16)"/><path class="cls-1" fill="url(#black)" d="M131.18,69.41A12.26,12.26,0,0,1,122,65.86a12.91,12.91,0,0,1-3.5-9.46v-.73a15.83,15.83,0,0,1,1.53-7.07,11.53,11.53,0,0,1,4.28-4.84A11.3,11.3,0,0,1,130.5,42c3.6,0,6.37,1.15,8.34,3.45s2.94,5.54,2.94,9.73h0a2.39,2.39,0,0,1-2.4,2.4H124.52a8,8,0,0,0,2.18,5.17,6.58,6.58,0,0,0,4.83,1.91,8,8,0,0,0,6.63-3.3l3.2,3.05a10.69,10.69,0,0,1-4.23,3.67A13.3,13.3,0,0,1,131.18,69.41Zm-.7-22.63a5,5,0,0,0-3.95,1.71,8.83,8.83,0,0,0-1.91,4.76h11.3v-.44a7.2,7.2,0,0,0-1.59-4.5A4.94,4.94,0,0,0,130.48,46.78Z" transform="translate(-0.16)"/><path class="cls-1" fill="url(#black)" d="M145.34,55.52q0-6.15,2.89-9.82a10,10,0,0,1,13-2.18,1.34,1.34,0,0,0,2.06-1h5.35V68.12a10.64,10.64,0,0,1-3.24,8.2q-3.22,3-8.72,3A14,14,0,0,1,151,78.11,10,10,0,0,1,146.78,75l2.81-3.56a8.48,8.48,0,0,0,6.73,3.24A6.55,6.55,0,0,0,161,73a6.1,6.1,0,0,0,1.71-4.69V66.55a8.73,8.73,0,0,1-6.84,2.86,9.26,9.26,0,0,1-7.58-3.69Q145.34,62,145.34,55.52Zm5.91.51a10.68,10.68,0,0,0,1.62,6.27,5.21,5.21,0,0,0,4.5,2.28,5.72,5.72,0,0,0,5.33-3.08V49.88a5.65,5.65,0,0,0-5.28-3,5.23,5.23,0,0,0-4.55,2.32C151.79,50.75,151.25,53,151.25,56Z" transform="translate(-0.16)"/><path class="cls-1" fill="url(#black)" d="M174.73,35.65a3.14,3.14,0,0,1,.87-2.27,3.26,3.26,0,0,1,2.47-.9,3.3,3.3,0,0,1,2.49.9,3.11,3.11,0,0,1,.88,2.27,3.05,3.05,0,0,1-.88,2.24,3.34,3.34,0,0,1-2.49.89,3.29,3.29,0,0,1-2.47-.89A3.09,3.09,0,0,1,174.73,35.65ZM181,68.92H175.1V44.54a2,2,0,0,1,2-2H181Z" transform="translate(-0.16)"/><path class="cls-1" fill="url(#black)" d="M202.29,61.75A2.69,2.69,0,0,0,201,59.33a14.09,14.09,0,0,0-4.33-1.47,21.61,21.61,0,0,1-5.05-1.61q-4.46-2.14-4.45-6.22A7,7,0,0,1,190,44.32a11.39,11.39,0,0,1,7.33-2.3A11.82,11.82,0,0,1,205,44.37a7.43,7.43,0,0,1,2.92,6.07h-4.55a1.57,1.57,0,0,1-1.53-1.07,3.65,3.65,0,0,0-1.13-1.77,4.81,4.81,0,0,0-3.36-1.13,5.3,5.3,0,0,0-3.12.85,3,3,0,0,0-1.3,2.47,2.39,2.39,0,0,0,1.15,2.12,15.82,15.82,0,0,0,4.63,1.52,22,22,0,0,1,5.48,1.84,7.68,7.68,0,0,1,3,2.55,6.5,6.5,0,0,1,1,3.61,6.87,6.87,0,0,1-3,5.77,12.62,12.62,0,0,1-7.74,2.21,13.73,13.73,0,0,1-5.79-1.17A9.54,9.54,0,0,1,187.69,65a7.67,7.67,0,0,1-1.42-4.42h4.16a2,2,0,0,1,1.85,1.33,3.84,3.84,0,0,0,1.34,1.9A6.15,6.15,0,0,0,197.5,65a6.07,6.07,0,0,0,3.57-.89A2.77,2.77,0,0,0,202.29,61.75Z" transform="translate(-0.16)"/><path class="cls-1" fill="url(#black)" d="M219.59,68.92h-5.93V33.13a1.7,1.7,0,0,1,1.7-1.7h4.23Z" transform="translate(-0.16)"/><path class="cls-1" fill="url(#black)" d="M241.83,68.92a8.89,8.89,0,0,1-.68-2.46,9.24,9.24,0,0,1-6.94,3,9.34,9.34,0,0,1-6.49-2.27,7.26,7.26,0,0,1-2.51-5.61,7.48,7.48,0,0,1,3.13-6.48q3.14-2.27,9-2.26h1.91A1.74,1.74,0,0,0,241,51.05h0a4.61,4.61,0,0,0-1.15-3.28,4.53,4.53,0,0,0-3.49-1.23,5.27,5.27,0,0,0-3.32,1,3.34,3.34,0,0,0-1.1,1.46,1.75,1.75,0,0,1-1.65,1.12h-4.47a6.59,6.59,0,0,1,1.44-4.07,9.49,9.49,0,0,1,3.92-3A13.66,13.66,0,0,1,236.65,42a11.1,11.1,0,0,1,7.4,2.33,8.33,8.33,0,0,1,2.83,6.56V62.82a13.63,13.63,0,0,0,1,5.69v.41Zm-6.52-4.27a6.74,6.74,0,0,0,3.31-.85A5.74,5.74,0,0,0,241,61.5v-5h-3.2a8.76,8.76,0,0,0-4.95,1.15,3.71,3.71,0,0,0-1.66,3.25,3.5,3.5,0,0,0,1.13,2.72A4.43,4.43,0,0,0,235.31,64.65Z" transform="translate(-0.16)"/><path class="cls-1" fill="url(#black)" d="M260.53,36.09v6.42h4.66v4.4h-4.66V61.65a3.27,3.27,0,0,0,.59,2.18,2.77,2.77,0,0,0,2.14.67,9.36,9.36,0,0,0,2.08-.24v4.59a14.88,14.88,0,0,1-3.91.56q-6.84,0-6.83-7.54v-15h-4.35v-4.4h4.35V38.57a2.48,2.48,0,0,1,2.48-2.48Z" transform="translate(-0.16)"/><path class="cls-1" fill="url(#black)" d="M285.86,68.8a1.21,1.21,0,0,0-1.91-.9,10,10,0,0,1-5.65,1.51q-4.31,0-6.51-2.51c-1.47-1.68-2.21-4.1-2.21-7.28V44.27a1.76,1.76,0,0,1,1.76-1.76h4.17v17c0,3.35,1.4,5,4.18,5s4.82-1,5.83-3.1v-17a1.92,1.92,0,0,1,1.92-1.92h4V68.92h-5.59Z" transform="translate(-0.16)"/><path class="cls-1" fill="url(#black)" d="M311.32,47.93a14.61,14.61,0,0,0-2.41-.19q-4.08,0-5.5,3.12V68.92h-5.93V42.51h5.66a1.22,1.22,0,0,0,2,.87A6.53,6.53,0,0,1,309.25,42a5.77,5.77,0,0,1,2.1.34Z" transform="translate(-0.16)"/><path class="cls-1" fill="url(#black)" d="M326.7,69.41a12.25,12.25,0,0,1-9.14-3.55,12.87,12.87,0,0,1-3.5-9.46v-.73a15.83,15.83,0,0,1,1.52-7.07,11.67,11.67,0,0,1,4.28-4.84A11.3,11.3,0,0,1,326,42q5.39,0,8.33,3.45t2.94,9.73h0a2.39,2.39,0,0,1-2.39,2.4H320a7.86,7.86,0,0,0,2.18,5.17A6.56,6.56,0,0,0,327,64.68a8,8,0,0,0,6.64-3.3l3.2,3.05a10.65,10.65,0,0,1-4.24,3.67A13.23,13.23,0,0,1,326.7,69.41ZM326,46.78a5,5,0,0,0-3.94,1.71,8.91,8.91,0,0,0-1.92,4.76h11.3v-.44a7.2,7.2,0,0,0-1.58-4.5A5,5,0,0,0,326,46.78Z" transform="translate(-0.16)"/><path class="cls-1" fill="url(#black)" d="M368.22,49.71V40c0-.33.37-.59.82-.59h1.16v-3h-7.79v3h1.16c.45,0,.82.26.82.59v9.71c0,.33-.37.59-.82.59h-1.16v3h7.79v-3H369C368.59,50.3,368.22,50,368.22,49.71Z" transform="translate(-0.16)"/><path class="cls-1" fill="url(#black)" d="M355.24,49.49h-6.62l-1.38,4h-4.09L349,38.11a2.69,2.69,0,0,1,2.51-1.74h.92a2.74,2.74,0,0,1,2.56,1.77l5.8,15.33h-4.1Zm-1.11-3.2-1.87-5.36a.34.34,0,0,0-.65,0l-1.87,5.36Z" transform="translate(-0.16)"/><path class="cls-1" fill="url(#black)" d="M365.45,49.37" transform="translate(-0.16)"/><path class="cls-1" fill="url(#black)" d="M103.44,63.72h13v5.2H100.61a6.7,6.7,0,0,1-6.7-6.69V33a1.58,1.58,0,0,1,1.58-1.58h4.93V60.71A3,3,0,0,0,103.44,63.72Z" transform="translate(-0.16)"/><path fill="url(#purple-blue-gradient)" class="c2" d="M38.33,5.05c-.86,0-3.87-1.69-3.34-1.69" transform="translate(-0.16)"/><path class="cls-1" fill="url(#black)" d="M41.85,3.37" transform="translate(-0.16)"/><path class="c2" fill="url(#purple-blue-gradient)" d="M72.5,14.67c0,.89-.37,1.9-1,2a8.85,8.85,0,0,0-4.68,1.92,8.55,8.55,0,0,0-2.12,4.89c-.06.66-1.16,1-1.91,1h-.33c-.89,0-1.9-.38-2-1a8.87,8.87,0,0,0-1.91-4.69,8.69,8.69,0,0,0-4.89-2.12c-.66-.06-1-1.16-1-1.9v-.19h0v-.14c0-.89.37-1.91,1-2a8.91,8.91,0,0,0,4.69-1.92,8.67,8.67,0,0,0,2.12-4.88c.06-.66,1.16-1,1.9-1h.33c.89,0,1.91.38,2,1a8.93,8.93,0,0,0,1.91,4.68,8.57,8.57,0,0,0,4.89,2.12c.66.06,1,1.16,1,1.91v.33Z" transform="translate(-0.16)"/></svg>